<?xml version="1.0" encoding="utf-8"?>
<!-- Generator: Adobe Illustrator 22.1.0, SVG Export Plug-In . SVG Version: 6.00 Build 0)  -->
<svg version="1.1" id="Layer_1" xmlns="http://www.w3.org/2000/svg" xmlns:xlink="http://www.w3.org/1999/xlink" x="0px" y="0px"
	 viewBox="0 0 1366 768" style="enable-background:new 0 0 1366 768;" xml:space="preserve">
<g>
	<path d="M518.6,448.9c-1.2,19.5-0.7,39.3-4,58.5c-4.3,24.8-24.1,42.2-49.3,43.7c-29.3,1.8-58.8,1.2-88.2,1.5
		c-7.2,0.1-10.9-3.4-11.3-11.2c-1.2-26.5-1.2-26.7,25.1-26.7c22,0,44,0,65.9,0c15.8,0,23.1-7.1,23.2-22.7c0.1-29.1,0.1-58.2,0-87.3
		c-0.1-16-7.6-23.7-23.5-23.8c-25.7-0.1-51.4,0-77.1-0.1c-11.7,0-13.3-1.8-13.5-13.7c-0.3-23.6-0.3-23.6,22.9-23.6
		c22.7,0,45.3-0.3,68,0.2c35.6,0.9,58.7,23.7,60.1,59.3c0.6,15.2,0.1,30.4,0.1,45.6C517.6,448.8,518.1,448.9,518.6,448.9z"/>
	<path d="M328,510.6c0-11.9,0-22.5,0-34.3c-15.5,0-29.6,0.1-43.7,0c-11.7-0.1-13.6-1.9-13.7-13.6c-0.1-10.2,0.3-20.3-0.1-30.5
		c-0.3-9.2,4.1-12.8,12.9-12.7c14.2,0.1,28.4,0,43.9,0c0-11.1,0-21.7,0-34.7c4.7,2.7,7.7,3.8,10,5.7c19,16.3,37.8,32.9,56.7,49.3
		c5,4.4,7.6,9.3,1.8,14.5c-20.8,18.4-41.8,36.5-62.8,54.6C332.4,509.5,331.3,509.6,328,510.6z"/>
</g>
</svg>
