<?xml version="1.0" encoding="utf-8"?>
<!-- Generator: Adobe Illustrator 22.1.0, SVG Export Plug-In . SVG Version: 6.00 Build 0)  -->
<svg version="1.1" id="Layer_1" xmlns="http://www.w3.org/2000/svg" xmlns:xlink="http://www.w3.org/1999/xlink" x="0px" y="0px"
	 viewBox="0 0 1366 768" style="enable-background:new 0 0 1366 768;" xml:space="preserve">
<g>
	<g>
		<g>
			<path d="M363.9,486.6H262.5V253.4h100.2c32.1,0,59.9,11.5,82.6,34.2c22.7,22.7,34.2,50.5,34.2,82.6c0,31.9-11.4,59.6-33.9,82.3
				S395.7,486.6,363.9,486.6z M263.5,485.6h100.4c31.4,0,58.7-11.4,81-33.9c22.3-22.5,33.6-49.9,33.6-81.6
				c0-31.8-11.4-59.4-33.9-81.9c-22.5-22.5-50-33.9-81.9-33.9h-99.2V485.6z M362.7,414.9h-25.8v-89.3h25.2
				c12.1,0,22.7,4.4,31.4,12.9c8.7,8.6,13.1,19.2,13.1,31.5c0,12.1-4.4,22.7-12.9,31.5C385.1,410.5,374.7,414.9,362.7,414.9z
				 M337.9,413.9h24.8c11.7,0,21.8-4.4,30.2-13c8.4-8.6,12.7-19,12.7-30.8c0-12-4.3-22.4-12.8-30.8c-8.5-8.4-18.8-12.7-30.7-12.7
				h-24.2V413.9z"/>
		</g>
	</g>
	<g>
		<g>
			<path d="M473.5,370.1c0,30.3-10.7,56.2-32,77.8c-21.4,21.5-47.1,32.3-77.2,32.3h-95.8V259.7h94.7c30.5,0,56.5,10.8,78.1,32.3
				C462.8,313.6,473.5,339.6,473.5,370.1z M404.3,370.1c0-11.6-4.1-21.5-12.3-29.6c-8.2-8.1-18-12.2-29.5-12.2h-23.5v83.8h24
				c11.2,0,20.9-4.1,29-12.4C400.3,391.5,404.3,381.6,404.3,370.1z"/>
		</g>
	</g>
	<g>
		<ellipse transform="matrix(0.9955 -9.501552e-02 9.501552e-02 0.9955 -17.4159 28.2385)" cx="287.8" cy="197" rx="32.5" ry="43"/>
	</g>
	<g>
		<ellipse transform="matrix(0.194 -0.981 0.981 0.194 112.7496 531.2368)" cx="379.7" cy="197" rx="43" ry="32.5"/>
	</g>
	<g>
		<ellipse transform="matrix(0.5 -0.866 0.866 0.5 30.6545 513.0952)" cx="459.7" cy="230" rx="43" ry="32.5"/>
	</g>
	<g>
		<ellipse transform="matrix(0.866 -0.5 0.5 0.866 -79.7779 298.2648)" cx="516.7" cy="298" rx="43" ry="32.5"/>
	</g>
	<g>
		<path d="M289.5,244.4c-19.3,0-36.2-19.3-38.6-43.9c-1.2-12.4,1.4-24.5,7.2-34c6.1-9.9,15-15.9,25.1-16.8c0.9-0.1,1.9-0.1,2.8-0.1
			c19.3,0,36.2,19.3,38.6,43.9c2.5,26.1-12,48.9-32.3,50.8C291.4,244.4,290.5,244.4,289.5,244.4z M286.1,150.6c-0.9,0-1.8,0-2.7,0.1
			c-9.8,0.9-18.4,6.7-24.3,16.4c-5.7,9.3-8.3,21.2-7.1,33.3c2.3,24.1,18.8,43,37.6,43c0.9,0,1.8,0,2.7-0.1
			c19.8-1.9,33.9-24.2,31.4-49.7C321.4,169.5,304.9,150.6,286.1,150.6z"/>
	</g>
	<g>
		<ellipse transform="matrix(0.9955 -9.501552e-02 9.501552e-02 0.9955 -17.4159 28.2385)" cx="287.8" cy="197" rx="32.5" ry="43"/>
	</g>
	<g>
		<path d="M376.2,244.2c-1.9,0-3.8-0.2-5.7-0.6c-9.9-2-18.2-8.8-23.3-19.3c-4.9-10-6.2-22.3-3.8-34.5c4.6-23.2,21.3-40,39.8-40
			c1.9,0,3.8,0.2,5.7,0.6c9.7,1.9,17.9,8.6,23,18.8c5.1,10.2,6.6,22.6,4.1,35C411.4,227.3,394.7,244.2,376.2,244.2z M383.2,150.8
			c-18,0-34.3,16.5-38.8,39.2c-2.4,12-1.1,24,3.7,33.9c4.9,10.2,13,16.8,22.6,18.7c1.8,0.4,3.7,0.5,5.5,0.5
			c18,0,34.3-16.5,38.8-39.2c2.4-12.2,1-24.4-4-34.3c-5-9.9-12.9-16.4-22.3-18.3C386.9,151,385,150.8,383.2,150.8z"/>
	</g>
	<g>
		<ellipse transform="matrix(0.194 -0.981 0.981 0.194 112.7496 531.2368)" cx="379.7" cy="197" rx="43" ry="32.5"/>
	</g>
	<g>
		<path d="M451.2,275.1c-5.5,0-10.7-1.3-15.3-4c-17.7-10.2-21.4-37-8.3-59.6c9.3-16.2,25.2-26.6,40.5-26.6c5.5,0,10.7,1.3,15.3,4
			c17.7,10.2,21.4,37,8.3,59.6C482.4,264.7,466.5,275.1,451.2,275.1z M468.1,185.9c-14.9,0-30.5,10.3-39.6,26.1
			c-12.8,22.2-9.3,48.4,7.9,58.3c4.5,2.6,9.4,3.9,14.8,3.9c14.9,0,30.5-10.3,39.6-26.1c12.8-22.2,9.3-48.4-7.9-58.3
			C478.5,187.2,473.5,185.9,468.1,185.9z"/>
	</g>
	<g>
		<ellipse transform="matrix(0.5 -0.866 0.866 0.5 30.6545 513.0952)" cx="459.7" cy="230" rx="43" ry="32.5"/>
	</g>
	<g>
		<path d="M507,337.9c-14.1,0-25.6-5.9-31.5-16.2c-5.1-8.8-5.4-19.5-0.8-30.2c4.3-10.3,12.7-19.4,23.5-25.6
			c8.9-5.2,18.7-7.9,28.2-7.9c14.1,0,25.6,5.9,31.5,16.2c4.9,8.6,5.3,19.1,1,29.7c-4.3,10.5-12.7,19.8-23.6,26.1
			C526.3,335.2,516.5,337.9,507,337.9z M526.3,259.1c-9.3,0-18.9,2.7-27.7,7.7c-10.6,6.1-18.8,15-23,25.1
			c-4.4,10.4-4.1,20.8,0.8,29.3c5.8,10,16.9,15.7,30.6,15.7c9.3,0,18.9-2.7,27.7-7.7c10.8-6.2,19-15.3,23.2-25.6
			c4.2-10.3,3.9-20.5-0.9-28.8C551.2,264.8,540,259.1,526.3,259.1z"/>
	</g>
	<g>
		<ellipse transform="matrix(0.866 -0.5 0.5 0.866 -79.7779 298.2648)" cx="516.7" cy="298" rx="43" ry="32.5"/>
	</g>
</g>
</svg>
